<svg width="688" height="1348" viewBox="0 0 688 1348" fill="none" xmlns="http://www.w3.org/2000/svg">
<path fill-rule="evenodd" clip-rule="evenodd" d="M151.021 163.991C160.972 194.215 179.898 201.82 198.239 203.77V243.939L137.558 248.619C119.412 252.323 114.144 235.359 104.583 180.175C104.778 180.175 150.826 164.576 151.021 163.991Z" fill="#EBEBEC"/>
<path fill-rule="evenodd" clip-rule="evenodd" d="M127.412 261.683C134.631 314.722 157.85 319.597 173.264 323.301L172.679 330.321L155.899 333.636L157.07 355.281L276.482 329.346L247.214 274.748C258.14 237.504 259.311 202.99 231.604 156.971L165.655 150.536C182.045 196.945 200.971 187.39 216.385 189.925L211.507 255.248L127.412 261.683Z" fill="#EBEBEC"/>
<path fill-rule="evenodd" clip-rule="evenodd" d="M248.385 381.605L239.214 349.821L180.874 358.401L179.703 394.67C212.288 400.519 231.8 392.525 248.385 381.605Z" fill="#EBEBEC"/>
<path fill-rule="evenodd" clip-rule="evenodd" d="M266.726 343.191L249.946 348.651L255.799 375.755L275.311 361.715L266.726 343.191Z" fill="#EBEBEC"/>
<path fill-rule="evenodd" clip-rule="evenodd" d="M293.262 152.681L293.847 183.1L447.6 161.846L467.111 127.332L293.262 152.681Z" fill="#EBEBEC"/>
<path fill-rule="evenodd" clip-rule="evenodd" d="M295.798 198.115L440.575 177.055L423.405 204.549L304.969 221.319L295.798 198.115Z" fill="#EBEBEC"/>
<path fill-rule="evenodd" clip-rule="evenodd" d="M257.555 273.188L297.749 312.577L325.846 260.123C299.896 249.788 264.774 176.47 295.018 116.997L251.702 80.1428L230.044 130.647C276.091 166.721 274.335 255.248 257.555 273.188Z" fill="#EBEBEC"/>
<path fill-rule="evenodd" clip-rule="evenodd" d="M381.065 1235.88C511.598 1277.61 593.743 1271.56 688.57 1271.37L686.033 1311.73C559.207 1310.56 451.307 1314.27 304.969 1243.09C337.553 1210.14 358.431 1229.83 381.065 1235.88Z" fill="#EBEBEC"/>
<path fill-rule="evenodd" clip-rule="evenodd" d="M336.968 1183.23L335.797 1201.56C476.087 1269.03 591.206 1260.45 692.472 1261.62L696.179 1227.3C571.694 1235.88 474.916 1237.24 336.968 1183.23Z" fill="#EBEBEC"/>
<path fill-rule="evenodd" clip-rule="evenodd" d="M696.375 126.552C719.984 122.457 731.886 128.697 742.032 138.446C775.787 132.401 778.519 150.146 780.275 157.166L819.689 152.291L875.297 110.757L815.006 86.5776L683.497 106.662C688.765 115.047 691.497 117.972 696.375 126.552Z" fill="#EBEBEC"/>
<path fill-rule="evenodd" clip-rule="evenodd" d="M348.87 487.487C313.359 478.907 345.358 456.288 357.455 452.973L311.993 414.559C287.798 416.314 244.092 424.309 238.629 481.637L309.261 538.771C328.383 543.646 336.968 536.236 338.919 529.021L348.87 487.487Z" fill="#EBEBEC"/>
<path fill-rule="evenodd" clip-rule="evenodd" d="M323.31 415.144C320.578 403.249 328.773 395.255 335.602 394.085L390.235 423.724L364.284 446.928L323.31 415.144Z" fill="#EBEBEC"/>
<path fill-rule="evenodd" clip-rule="evenodd" d="M437.453 319.987L446.039 347.481C432.771 345.336 319.017 362.69 353.943 262.853C371.114 323.301 409.552 318.037 437.453 319.987Z" fill="#EBEBEC"/>
<path fill-rule="evenodd" clip-rule="evenodd" d="M92.2906 184.66L105.363 246.084L92.2906 260.708L44.2917 228.924L72.3886 177.64L92.2906 184.66Z" fill="#EBEBEC"/>
<path fill-rule="evenodd" clip-rule="evenodd" d="M176.972 404.224C219.312 422.554 287.798 388.04 295.798 359.375L327.212 365.81L316.676 398.764C291.506 403.639 237.263 409.099 221.458 487.292C221.458 487.292 155.313 468.573 154.728 468.378C153.753 468.573 176.972 404.224 176.972 404.224Z" fill="#EBEBEC"/>
<path fill-rule="evenodd" clip-rule="evenodd" d="M591.401 367.565C571.109 340.071 548.866 311.992 489.55 310.432C489.55 310.432 491.891 333.051 492.672 333.051C535.598 333.636 557.646 345.531 576.963 369.32L591.401 367.565Z" fill="#EBEBEC"/>
<path fill-rule="evenodd" clip-rule="evenodd" d="M725.057 1116.54C764.275 1118.88 786.324 1133.51 809.543 1153.2C802.128 1166.07 772.275 1184.01 738.52 1172.5L753.154 1144.62L743.788 1142.28L716.472 1179.52L703.008 1187.13L687.789 1189.47L725.057 1116.54Z" fill="#EBEBEC"/>
<path fill-rule="evenodd" clip-rule="evenodd" d="M692.472 783.489L684.277 820.734L641.742 753.07L692.472 783.489Z" fill="#EBEBEC"/>
<path d="M538.524 -3.29483e-05C558.426 17.7445 554.914 37.634 545.939 46.2138C549.061 44.2638 552.768 43.2888 556.865 43.2888C568.963 43.2888 578.914 53.6236 578.914 66.2982C578.914 78.9729 568.963 89.3076 556.865 89.3076C547.305 89.3076 537.744 84.6278 534.817 75.853L532.671 84.0428L598.425 129.867L599.596 130.647L606.62 120.312C605.45 120.702 604.084 121.092 602.913 121.287C590.23 123.822 577.938 115.437 575.402 102.762C572.865 90.0876 581.255 77.8029 593.938 75.268C606.425 72.9281 619.498 85.9927 622.23 98.2774C622.035 96.9125 623.205 87.9427 623.205 86.5777C623.205 73.7081 633.742 63.1783 646.619 63.1783C659.497 63.1783 670.034 73.7081 670.034 86.5777C670.034 99.2524 661.644 109.197 649.156 109.587C649.936 108.612 647.595 116.607 648.571 116.022C659.887 109.587 673.351 109.002 681.741 118.947C690.131 128.892 691.887 145.856 681.741 154.046C659.887 171.401 643.302 157.751 643.302 141.176C643.302 142.541 636.083 153.071 636.083 153.071L697.35 191.875L709.447 186.22C708.082 186.22 706.911 186.22 705.545 186.025C692.667 184.27 683.692 172.376 685.643 159.506C687.399 146.636 699.301 137.666 712.179 139.616C724.862 141.371 733.642 152.876 732.276 165.356C735.008 153.851 742.227 140.396 762.324 153.656L698.326 214.299L508.281 85.7977C509.062 85.2128 537.744 1.75492 538.329 2.14491C538.524 2.33991 538.134 -0.195028 538.524 -3.29483e-05Z" fill="#EBEBEC"/>
<path fill-rule="evenodd" clip-rule="evenodd" d="M0 585.375L73.9496 528.241L164.874 610.334L117.071 612.674L63.023 593.565L82.1445 574.26L69.2667 568.41L23.8043 585.375H0Z" fill="#EBEBEC"/>
<path fill-rule="evenodd" clip-rule="evenodd" d="M414.625 246.083L421.064 260.708L438.819 246.668L431.21 276.893L444.088 296.782L465.746 283.912L448.965 307.117C456.77 321.741 458.916 327.786 471.794 336.951C477.648 247.253 561.158 264.998 586.914 295.222C615.791 333.636 621.644 409.294 517.647 374.195L499.306 366.59L484.087 354.696C484.087 354.696 475.892 346.701 475.111 346.701L474.331 359.57L462.429 388.82C497.745 405.004 520.964 409.879 550.622 409.879L550.427 428.794C499.891 419.044 422.039 391.55 374.235 462.723L363.894 462.138L356.87 474.033L368.772 478.322C368.772 478.322 357.065 520.441 356.87 521.026L442.917 480.662H454.039L454.624 490.022L173.655 626.714L133.46 630.808L42.5356 615.014L1.17072 686.187L42.5356 677.412L48.9745 639.583L67.1205 643.678L54.2427 680.337L99.7051 676.827L140.485 658.108L155.704 665.713L56.5841 713.486L113.168 793.239L110.827 710.561L121.948 746.635L177.947 698.277L192.581 696.522C192.581 696.522 180.484 730.841 180.289 732.011C180.094 733.181 214.044 744.295 214.044 744.295L211.703 753.07L178.533 752.485L154.728 777.445C188.679 779.785 204.483 773.35 229.263 759.895L225.166 720.311L284.676 689.502L295.798 698.862L266.726 725.576C339.7 747.22 358.431 683.067 367.601 659.083L385.747 653.818C382.43 683.067 375.211 705.686 357.846 721.481C446.624 712.706 429.063 652.258 430.039 626.518L444.673 616.574C452.868 649.723 454.039 669.612 434.722 704.516C449.356 706.271 464.575 703.346 486.623 689.307C521.744 656.158 516.476 629.833 522.135 587.91C550.817 634.513 533.256 652.063 520.574 688.722L681.936 757.36C683.887 736.496 672.765 716.021 648.766 702.566C648.961 701.982 654.034 695.547 654.034 695.547C714.13 716.606 709.838 773.74 692.667 821.513C631.986 964.835 747.105 1028.79 686.619 1080.66C791.007 1075.98 767.788 1013.19 769.348 982.774C768.568 982.774 856.176 1024.7 856.176 1024.7C875.492 1060.77 867.883 1098.21 834.128 1164.51C798.616 1183.81 767.592 1197.66 714.52 1202.92L702.813 1282.09L733.642 1215.6L739.495 1215.01L751.203 1249.33L783.787 1243.48L818.713 1198.63L827.494 1202.14L803.884 1240.17L767.788 1289.11L834.323 1340.98L820.274 1294.96L800.372 1274.49L806.811 1266.88L840.566 1289.7L884.273 1187.71L903.589 1239L928.564 1240.75L931.491 1234.9H939.101L936.759 1251.87H921.735L921.15 1300.81L950.222 1258.89L966.027 1216.38L934.613 1185.57L942.808 1170.36C968.564 1186.15 984.368 1197.27 990.612 1222.23C1016.37 1200.78 1026.9 1154.76 968.368 1089.44C1007.59 1094.12 1015.2 1122.2 1026.12 1144.23C1041.34 1109.91 1049.34 1042.25 958.417 1004.42L959.003 949.04L894.224 929.151L893.053 920.376L870.419 909.846C870.615 885.472 907.101 833.018 840.566 778.81C917.638 801.624 951.393 755.02 973.441 733.376C1055.78 753.85 1076.66 697.302 1079 668.052C1058.12 682.092 1001.73 701.982 988.856 672.732C1048.37 670.977 1066.9 661.618 1066.9 602.729C1042.51 615.599 1011.1 622.034 987.685 614.429C980.856 573.675 961.344 535.261 919.199 500.357C919.199 500.357 893.443 534.091 893.638 534.676C967.003 578.355 957.052 778.225 833.347 710.561L772.665 657.133L674.131 555.54C659.692 562.17 618.718 577.185 579.694 550.081C655.595 564.12 705.155 534.481 703.984 499.967C665.741 520.636 646.815 513.616 612.084 509.132L615.401 498.797C738.13 502.697 727.398 456.678 730.52 420.604C715.496 438.543 690.131 452.583 648.961 443.808L650.522 429.184C687.399 429.769 750.617 410.854 730.715 342.411C721.154 365.225 705.935 375.95 661.058 380.24L659.497 368.93C669.253 363.47 738.13 358.595 723.691 281.377C703.789 303.607 689.35 314.332 655.01 320.181L652.863 304.972C687.009 295.807 701.838 284.497 716.862 264.023C716.081 264.023 718.033 217.614 718.033 217.614C699.887 238.674 678.033 265.583 629.839 264.023L628.669 253.688C752.568 241.404 654.034 124.212 596.865 222.879L587.694 224.049L580.67 217.029L584.377 210.009L582.231 193.24L486.038 129.086L459.502 174.91L503.208 179.2L504.379 203.575C504.379 203.575 463.014 227.364 461.648 227.364C460.477 227.364 475.306 194.995 475.306 194.995L454.624 178.225L414.625 246.083Z" fill="#EBEBEC"/>
<path fill-rule="evenodd" clip-rule="evenodd" d="M611.498 752.095L670.229 833.018L656.766 894.247C642.717 893.077 558.036 890.737 562.329 961.52C638.815 994.669 602.133 1032.69 567.207 1047.32C576.377 1033.86 580.084 1003.25 547.695 1000.71C556.865 1038.74 567.987 1076.76 485.257 1098.6C528.768 1061.94 503.013 1041.08 497.55 1022.75C487.208 1063.31 490.721 1095.09 425.161 1108.55L427.698 1061.94L416.576 1053.36L406.82 1079.1L376.187 1098.6L404.284 1138.97L336.968 1176.99L366.431 1130.39L352.968 1125.51L339.505 1137.8L342.041 1114.59L329.749 1080.27L296.579 1081.44L267.116 1136.63L248.775 1132.92L245.068 1123.17L224.19 1112.06L220.483 1123.17L242.531 1140.33L233.946 1190.64L197.264 1107.38L285.457 1064.48L282.92 1054.73L198.435 1090.22L164.289 1060.77L160.582 1085.34L122.534 1130.58L131.119 1054.73L390.82 971.465L406.82 964.055C438.039 954.305 397.65 882.157 428.868 859.928C391.406 861.293 322.92 866.167 367.601 764.38C429.454 829.313 539.89 780.37 611.498 752.095Z" fill="#EBEBEC"/>
<path fill-rule="evenodd" clip-rule="evenodd" d="M235.312 1009.29L174.045 956.645L100.486 1032.5L121.363 1033.86L169.167 1011.83L176.581 990.964L191.215 999.544L188.679 1013L175.216 1015.34L202.142 1021.58L235.312 1009.29Z" fill="#EBEBEC"/>
<path fill-rule="evenodd" clip-rule="evenodd" d="M118.827 1156.32L137.168 1141.7L167.801 1098.8L183.801 1108.55L235.312 1216.38L261.067 1150.28L283.116 1158.85L243.897 1223.59L221.849 1221.06L194.922 1172.11L182.63 1197.85L149.46 1170.94L144.582 1147.74L134.826 1167.24L140.875 1179.52C115.705 1170.94 102.242 1183.23 111.412 1241.92C94.8271 1222.42 43.3161 1201.56 84.4859 1154.95L90.5345 1158.66L94.2417 1140.33C63.0229 1093.92 94.8271 1085.34 111.412 1088.85V1156.32H118.827Z" fill="#EBEBEC"/>
<path fill-rule="evenodd" clip-rule="evenodd" d="M321.163 1091.39C352.382 1125.71 308.286 1195.51 329.749 1216.38C304.578 1236.07 243.312 1248.36 268.482 1310.76C274.14 1298.28 267.896 1286.38 281.945 1277.61C378.138 1326.75 229.848 1403.77 223.214 1286.19C223.8 1258.11 274.14 1226.32 275.896 1194.34C309.652 1163.73 304.774 1129.61 295.408 1111.08L321.163 1091.39Z" fill="#EBEBEC"/>
<path fill-rule="evenodd" clip-rule="evenodd" d="M492.867 115.632L590.621 186.805L622.425 177.64L503.794 94.1824L492.867 115.632Z" fill="#EBEBEC"/>
</svg>
